<?xml version="1.0" standalone="no"?>
<!DOCTYPE svg PUBLIC "-//W3C//DTD SVG 20010904//EN"
 "http://www.w3.org/TR/2001/REC-SVG-20010904/DTD/svg10.dtd">
<svg version="1.0" xmlns="http://www.w3.org/2000/svg"
 width="1600.000000pt" height="1600.000000pt" viewBox="0 0 1600.000000 1600.000000"
 preserveAspectRatio="xMidYMid meet">
<metadata>
Created by potrace 1.14, written by Peter Selinger 2001-2017
</metadata>
<g transform="translate(0.000000,1600.000000) scale(0.100000,-0.100000)"
fill="#000000" stroke="none">
<path d="M7500 15250 l0 -251 -152 1 c-84 0 -309 0 -500 0 l-348 0 0 -250 0
-250 -217 -1 c-120 -1 -233 0 -250 1 l-33 1 0 -113 c-1 -62 -1 -126 0 -143 1
-16 2 -37 1 -45 0 -8 0 -57 -1 -107 0 -89 -1 -93 -23 -93 -12 0 -40 0 -62 0
-64 -2 -236 0 -254 2 -3 0 -41 0 -84 -1 l-79 -1 2 -32 c1 -18 2 -131 1 -250
l-1 -218 -250 0 -250 0 0 -1250 0 -1250 250 0 250 0 0 -500 0 -500 63 -1 c34
-1 66 -1 71 0 5 1 61 2 125 1 134 -2 126 -2 171 -1 72 2 68 6 72 -97 2 -51 1
-95 -1 -97 -3 -3 -3 -169 -1 -287 0 -17 19 -18 250 -18 l250 0 0 -250 0 -251
-172 1 c-95 0 -207 -1 -248 -3 l-75 -2 -3 -95 c-1 -52 -2 -122 -1 -155 0 -33
0 -67 0 -75 0 -8 0 -50 -1 -92 l0 -78 -250 0 -250 0 0 -500 0 -500 -250 0
-250 0 -1 -962 c0 -530 0 -980 1 -1000 l1 -38 -251 0 -250 0 0 -500 0 -500
250 0 250 0 1 -57 c1 -32 1 -61 1 -64 -2 -17 -4 -266 -3 -289 1 -8 1 -32 1
-52 -1 -33 2 -38 22 -39 13 -1 28 0 33 1 6 1 33 2 60 1 115 -2 262 -2 271 0 5
1 33 1 62 0 l52 -1 0 -250 0 -250 500 0 500 0 0 -250 0 -251 -222 1 c-123 0
-235 1 -250 0 -22 0 -28 -5 -27 -22 0 -27 1 -266 0 -288 -1 -27 0 -222 1 -228
0 -4 -1 -11 -2 -17 -2 -12 -2 -51 0 -215 2 -236 3 -230 -22 -230 -13 0 -57 1
-98 1 -106 1 -153 1 -165 -1 -5 -1 -56 -1 -112 0 l-103 1 0 -500 0 -501 249 0
250 0 3 -88 c2 -48 1 -103 -2 -122 -3 -19 -3 -53 0 -74 3 -22 3 -75 0 -118 -3
-43 -3 -83 -2 -88 3 -7 266 -10 753 -10 l749 0 0 250 0 250 500 0 500 0 0
-250 0 -250 749 0 c411 0 750 2 752 4 2 3 2 64 -1 138 -3 73 -3 149 0 168 3
19 3 53 0 75 -3 22 -4 57 -2 78 l3 37 250 0 249 0 0 499 0 500 -111 3 c-61 2
-113 0 -115 -3 -2 -4 -18 -4 -36 0 -18 4 -53 4 -78 1 -61 -7 -155 2 -157 16
-3 18 -4 93 -3 205 0 59 0 110 -1 115 -1 5 0 14 1 19 1 6 2 30 2 55 -1 25 -1
110 -1 190 0 80 -1 165 -2 190 -1 25 -1 52 0 60 2 43 1 144 -2 146 -4 4 -196
7 -212 4 -5 -1 -72 -2 -147 -1 l-138 1 0 250 0 250 500 0 500 0 0 250 0 251
78 -1 c150 -1 317 0 377 2 6 0 17 -1 25 -3 12 -3 15 8 17 51 2 72 3 181 2 200
0 8 0 44 1 80 1 36 1 70 0 75 -1 6 -2 29 -1 53 l1 42 250 0 250 0 0 500 0 500
-250 0 -250 0 0 1000 0 1000 -250 0 -250 0 0 500 0 500 -137 0 c-76 1 -189 2
-252 3 l-113 2 2 130 c1 72 1 144 0 160 -1 17 -2 35 -2 40 3 75 2 158 -2 162
-3 3 -27 5 -53 4 -26 -1 -52 -2 -58 -3 -5 0 -53 1 -105 2 -52 1 -99 1 -105 0
-5 -1 -47 -2 -92 -1 l-83 1 0 250 0 250 223 1 c122 1 234 0 249 -1 l28 -1 0
113 c1 62 1 122 0 133 -2 28 -2 119 0 213 0 38 9 43 68 42 32 0 105 -1 164 0
59 0 111 0 115 -1 5 -1 13 0 18 1 6 1 38 1 73 0 l62 -1 0 1000 0 1001 78 1
c42 1 81 0 87 -1 5 -1 17 -1 25 -1 49 0 111 1 155 0 28 0 74 0 102 0 l53 1 0
750 0 750 -250 0 -250 0 0 250 0 250 -67 1 c-38 1 -71 1 -74 1 -12 -2 -153 -3
-284 -4 -82 0 -73 -11 -76 105 -1 53 1 240 3 256 0 3 -1 11 -2 16 -1 6 -1 36
0 68 l1 57 -250 0 -251 0 0 250 0 249 -187 3 c-104 2 -204 1 -223 -2 -19 -3
-160 -4 -312 -2 l-278 3 0 249 0 250 -500 0 -500 0 0 -250z"/>
</g>
</svg>
